<?xml version="1.0" standalone="no"?>
<!DOCTYPE svg PUBLIC "-//W3C//DTD SVG 20010904//EN"
 "http://www.w3.org/TR/2001/REC-SVG-20010904/DTD/svg10.dtd">
<svg version="1.0" xmlns="http://www.w3.org/2000/svg"
 width="460.000000pt" height="460.000000pt" viewBox="0 0 460.000000 460.000000"
 preserveAspectRatio="xMidYMid meet">
<metadata>
Created by potrace 1.14, written by Peter Selinger 2001-2017
</metadata>
<g transform="translate(0.000000,460.000000) scale(0.100000,-0.100000)"
fill="#000000" stroke="none">
<path d="M47 4580 c8 -31 24 -35 42 -12 9 11 30 23 46 25 17 2 2 5 -32 6 -57
1 -61 0 -56 -19z"/>
<path d="M182 4579 c11 -17 10 -22 -4 -33 -10 -7 -18 -18 -18 -25 0 -16 -25
-14 -41 5 -9 11 -23 14 -48 10 -20 -4 -44 -6 -53 -7 -16 0 -18 -16 -18 -180 0
-142 3 -179 13 -179 8 0 13 -10 13 -22 -1 -15 7 -24 24 -28 33 -9 50 -2 50 20
0 22 27 45 62 54 23 5 25 3 21 -14 -3 -11 -19 -32 -35 -45 -35 -30 -31 -52 9
-57 22 -2 29 -9 31 -29 2 -15 -4 -31 -13 -39 -15 -12 -23 -11 -61 9 -27 15
-44 31 -44 42 0 17 -56 66 -66 57 -2 -3 -3 -120 -2 -262 l3 -256 25 23 c59 54
80 41 73 -47 -6 -72 3 -84 48 -66 36 15 114 -3 105 -23 -3 -7 -9 -20 -12 -30
-6 -15 -9 -15 -31 9 -24 27 -46 27 -24 0 8 -10 9 -16 1 -21 -5 -3 -13 1 -16 9
-5 14 -8 14 -21 1 -8 -8 -22 -16 -31 -16 -81 -6 -125 29 -80 63 17 12 20 20
12 28 -9 9 -17 8 -33 -2 -19 -12 -21 -21 -21 -130 0 -128 1 -131 56 -106 23
11 28 10 40 -7 22 -29 17 -39 -27 -57 -36 -15 -41 -21 -35 -42 7 -30 -2 -56
-20 -56 -17 0 -20 -85 -4 -95 7 -4 7 -12 0 -25 -5 -10 -10 -37 -10 -59 0 -34
3 -41 20 -41 25 0 38 -44 19 -68 -38 -47 -39 -57 -39 -357 0 -235 3 -295 13
-295 19 0 37 21 37 42 0 10 4 18 10 18 9 0 31 -33 37 -55 1 -5 5 -20 9 -32 5
-18 2 -23 -12 -23 -11 0 -25 4 -32 9 -18 11 -62 -10 -62 -29 0 -10 11 -16 32
-17 41 -3 45 -8 51 -67 3 -27 2 -44 -2 -38 -3 5 -23 17 -43 25 l-38 16 0
-1020 0 -1019 119 0 c86 0 121 3 124 13 4 9 6 9 6 0 1 -15 51 -18 51 -3 0 6 9
10 20 10 11 0 20 -4 20 -10 0 -12 24 -13 48 -1 47 24 120 40 153 35 34 -6 37
-4 47 25 6 17 15 31 20 31 9 0 95 109 134 168 9 14 20 44 23 66 14 87 111 232
197 293 46 34 48 37 42 72 l-7 36 22 -19 c18 -16 21 -17 21 -3 0 22 69 55 80
37 5 -9 19 -1 50 28 33 33 40 46 35 64 -4 13 -8 23 -9 24 -35 20 -65 48 -60
55 4 6 10 6 17 1 7 -6 25 -10 41 -10 17 0 35 -7 43 -18 14 -18 16 -18 42 14
16 19 37 32 50 32 26 0 60 36 61 63 0 12 -8 17 -25 17 -25 0 -46 26 -38 48 3
6 16 12 29 12 13 0 33 9 44 20 11 11 24 20 30 20 16 0 11 -19 -10 -37 -11 -10
-20 -28 -20 -40 0 -33 14 -28 25 9 7 23 17 32 35 35 14 1 35 5 47 8 29 7 38
-23 18 -61 -22 -43 -19 -51 28 -72 23 -11 58 -33 77 -50 40 -37 60 -41 53 -12
-6 21 20 29 32 10 3 -5 28 -20 55 -32 28 -13 50 -26 50 -30 0 -5 7 -8 16 -8
18 0 94 -42 94 -52 0 -5 -14 -8 -32 -8 l-32 0 41 -28 c153 -101 286 -217 365
-317 66 -84 103 -128 113 -136 6 -5 35 -29 65 -53 31 -25 95 -90 144 -145 l89
-101 959 0 958 0 0 183 0 182 -23 -28 c-45 -56 -76 -7 -75 121 0 40 -6 86 -12
102 -7 17 -10 36 -6 45 6 18 42 20 52 4 11 -18 7 -120 -5 -132 -29 -29 3 -93
34 -67 8 7 15 21 15 31 0 11 5 19 10 19 6 0 10 7 10 15 0 8 -4 15 -10 15 -5 0
-10 7 -10 15 0 8 5 15 10 15 6 0 10 33 10 80 0 44 -4 80 -9 80 -5 0 -12 15
-15 34 -4 22 -13 36 -26 39 -13 3 -20 13 -20 29 l1 23 17 -20 c9 -12 25 -24
35 -28 16 -6 17 21 17 489 0 448 -2 496 -16 490 -9 -4 -38 9 -70 30 -58 38
-70 60 -29 50 14 -4 45 -9 70 -13 43 -5 45 -5 45 20 0 14 -7 28 -17 32 -17 6
-17 7 -1 19 14 11 17 35 17 179 1 141 -2 167 -14 167 -19 0 -19 19 0 26 10 4
15 20 15 51 l0 44 -29 -17 c-24 -14 -32 -15 -45 -5 -12 10 -19 10 -38 -3 -12
-9 -33 -16 -45 -16 -23 0 -23 1 -8 30 17 33 26 36 54 18 15 -9 22 -7 40 9 14
13 30 18 46 15 25 -4 25 -3 25 61 0 43 -4 67 -12 70 -10 4 -10 6 0 6 7 1 12
15 12 38 0 29 -3 34 -12 25 -7 -7 -20 -12 -31 -12 -12 0 -17 -6 -16 -17 4 -26
-10 -73 -21 -73 -6 0 -10 9 -10 21 0 11 -5 29 -10 39 -7 13 -7 21 1 25 6 4 8
22 4 44 -5 33 -4 37 23 47 16 6 37 7 50 3 l22 -8 -2 242 c-3 239 -3 242 -24
245 -27 4 -21 38 7 47 18 6 19 19 19 216 0 176 -3 214 -16 234 -15 23 -15 25
0 25 14 0 16 24 16 220 0 215 0 220 -20 220 -25 0 -74 46 -65 61 12 19 56 30
71 18 12 -10 14 16 14 166 l0 177 -49 -7 c-55 -7 -91 8 -91 39 0 14 5 17 23
11 54 -16 67 -16 91 1 45 33 33 44 -49 44 l-74 0 -48 -45 c-45 -42 -47 -45
-25 -51 32 -9 27 -29 -13 -48 -36 -18 -59 -13 -84 17 -8 11 -24 13 -51 10 -30
-4 -41 -2 -46 10 -10 28 17 75 48 81 15 3 28 10 28 16 0 6 -61 10 -171 10
-164 0 -170 -1 -164 -19 7 -23 -19 -41 -59 -41 -18 0 -24 4 -20 14 6 17 -25
29 -50 20 -11 -4 -16 -1 -16 10 0 15 -129 16 -1503 16 -1025 0 -1506 -3 -1513
-10 -6 -6 -33 -12 -60 -14 -45 -2 -49 -5 -52 -29 -4 -30 21 -39 32 -11 9 24
50 14 54 -13 2 -13 10 -23 17 -23 17 0 35 -31 35 -60 0 -15 15 -27 57 -48 31
-15 56 -31 55 -37 -1 -5 -24 -10 -50 -10 -46 0 -47 -1 -50 -33 -3 -29 -6 -32
-25 -26 -35 10 -98 56 -108 79 -12 29 -30 48 -61 64 -35 18 -39 46 -6 35 23
-7 118 -14 118 -8 0 10 -48 52 -67 58 -13 4 -20 13 -17 21 5 12 0 12 -25 2
-21 -8 -27 -14 -18 -20 8 -6 6 -7 -6 -3 -10 3 -23 6 -28 6 -4 0 -6 7 -3 15 4
8 12 15 19 15 7 0 17 6 24 13 25 31 -9 37 -221 37 -208 0 -208 0 -196 -21z
m1858 -8 c16 -30 12 -39 -15 -33 -32 6 -40 19 -25 37 17 20 27 19 40 -4z m602
-13 c-15 -15 -26 -4 -18 18 5 13 9 15 18 6 9 -9 9 -15 0 -24z m-933 -19 c42
-40 36 -64 -11 -45 -38 17 -54 37 -45 60 9 23 20 20 56 -15z m96 11 c0 -8 -10
-16 -22 -18 -18 -3 -23 2 -23 18 0 16 5 21 23 18 12 -2 22 -10 22 -18z m-302
-14 c7 -17 -22 -31 -36 -17 -5 5 -6 14 -3 20 10 16 33 14 39 -3z m1704 0 c-3
-8 -1 -17 6 -20 7 -2 4 -5 -5 -5 -10 -1 -18 1 -18 3 0 10 13 36 17 36 3 0 3
-6 0 -14z m-2927 -26 c5 -22 12 -25 48 -25 36 0 42 -3 42 -21 0 -13 -12 -27
-34 -39 -32 -17 -36 -18 -60 -2 -29 19 -78 22 -108 6 -12 -7 -24 -7 -29 -2
-15 15 8 62 34 72 12 5 29 16 37 25 20 25 63 17 70 -14z m1690 16 c0 -6 -9
-17 -20 -23 -24 -15 -72 -1 -65 19 7 17 85 20 85 4z m1790 -11 c0 -8 5 -15 10
-15 6 0 10 -7 10 -15 0 -17 -69 -22 -85 -6 -6 5 -23 11 -39 13 -44 5 -46 28
-2 28 22 0 36 -5 36 -12 0 -8 6 -6 17 5 21 21 53 22 53 2z m320 -71 c0 -19 -2
-34 -4 -34 -11 0 -35 51 -30 64 10 26 34 6 34 -30z m-870 6 c0 -5 -8 -10 -17
-10 -15 0 -16 2 -3 10 19 12 20 12 20 0z m-1610 -6 c0 -11 -34 -33 -51 -34 -9
0 -20 -10 -26 -22 -8 -19 -6 -25 11 -33 15 -8 21 -20 21 -45 0 -33 -2 -35 -33
-35 -32 -1 -34 1 -30 33 3 25 -1 36 -14 43 -10 5 -18 14 -18 19 0 11 36 50 46
50 3 0 12 7 20 15 15 15 74 21 74 9z m160 2 c0 -2 -7 -6 -15 -10 -8 -3 -15 -1
-15 4 0 6 7 10 15 10 8 0 15 -2 15 -4z m2080 -31 c0 -10 -11 -15 -35 -15 -38
0 -48 22 -18 39 21 11 53 -3 53 -24z m-3320 15 c0 -5 -7 -7 -15 -4 -8 4 -15 8
-15 10 0 2 7 4 15 4 8 0 15 -4 15 -10z m3056 -12 l37 -22 15 22 c8 12 22 22
32 22 23 0 33 -40 16 -60 -7 -8 -19 -32 -26 -53 -6 -21 -18 -41 -26 -44 -7 -2
-16 -13 -19 -24 -8 -23 -23 -24 -44 -4 -9 8 -33 29 -53 46 -44 36 -51 69 -14
69 19 0 25 7 30 35 4 19 9 35 11 35 2 0 21 -10 41 -22z m-3451 -10 c-9 -29
-14 -34 -42 -42 -21 -7 -22 -5 -10 16 22 41 28 48 43 48 11 0 14 -6 9 -22z
m2343 -3 c8 -7 12 -27 10 -46 l-3 -34 -38 39 c-45 48 -49 69 -9 60 15 -4 33
-12 40 -19z m-568 0 c0 -16 -27 -32 -37 -21 -7 7 16 36 28 36 5 0 9 -7 9 -15z
m1171 -77 c24 -25 46 -38 63 -38 21 0 26 -5 26 -24 0 -35 -13 -39 -35 -10 -13
18 -21 21 -31 13 -22 -18 -49 -1 -69 46 -11 25 -23 45 -26 45 -3 0 -6 15 -7
33 l-1 32 22 -30 c12 -16 38 -47 58 -67z m-1870 42 l44 -39 -45 -1 c-25 -1
-53 -3 -62 -5 -15 -3 -17 3 -14 38 5 51 3 47 20 47 7 0 33 -18 57 -40z m1644
10 c0 -19 -35 -26 -46 -8 -15 23 -10 29 19 26 16 -2 27 -9 27 -18z m-1055 -47
c0 -14 -6 -23 -15 -23 -8 0 -15 8 -15 18 0 9 -3 28 -7 42 -6 25 -6 25 15 6 12
-11 22 -30 22 -43z m-1437 21 c-4 -10 -9 -12 -15 -6 -12 12 -1 35 12 27 5 -3
6 -13 3 -21z m2291 -29 c-4 -8 -8 -15 -10 -15 -2 0 -4 7 -4 15 0 8 4 15 10 15
5 0 7 -7 4 -15z m1310 -4 c25 -28 33 -99 13 -107 -11 -4 -15 -17 -14 -44 1
-44 -18 -72 -47 -68 -18 3 -22 11 -24 52 -3 40 0 51 18 63 17 12 21 22 16 45
-6 32 2 78 14 78 4 0 15 -9 24 -19z m-3853 -13 c23 -29 23 -36 1 -79 -19 -37
-32 -39 -64 -11 -23 20 -23 29 2 37 16 5 18 10 9 32 -7 20 -6 28 3 35 20 12
28 10 49 -14z m2180 6 c16 -19 3 -43 -29 -55 -16 -6 -27 -3 -42 13 -25 28 -25
32 3 46 32 15 53 14 68 -4z m242 -21 c5 -26 4 -26 -9 -8 -15 21 -19 49 -5 41
5 -3 11 -18 14 -33z m1515 10 c-4 -22 -48 -31 -48 -10 0 19 10 27 32 27 13 0
18 -6 16 -17z m-218 -13 c0 -23 -26 -39 -51 -33 -28 8 -32 33 -6 43 37 15 57
12 57 -10z m-2780 -20 c0 -24 -26 -38 -42 -22 -16 16 -2 42 22 42 13 0 20 -7
20 -20z m613 13 c-7 -2 -13 -18 -13 -34 0 -32 -24 -40 -35 -12 -6 18 26 54 49
52 7 0 7 -2 -1 -6z m-703 -13 c12 -8 11 -10 -7 -10 -13 0 -23 5 -23 10 0 13
11 13 30 0z m1818 -28 c3 -9 -2 -13 -14 -10 -9 1 -19 9 -22 16 -3 9 2 13 14
10 9 -1 19 -9 22 -16z m1460 2 c29 -20 28 -34 -3 -34 -14 0 -25 4 -25 9 0 5
-3 16 -6 25 -8 20 5 20 34 0z m-3478 -24 c0 -19 -32 -32 -56 -23 -22 8 -17 33
9 42 29 11 47 3 47 -19z m1225 11 c3 -5 1 -12 -4 -15 -13 -8 -42 4 -35 15 7
12 31 12 39 0z m899 -7 c18 -18 20 -30 7 -39 -9 -5 -41 31 -41 47 0 13 18 9
34 -8z m1631 -26 c6 -33 -18 -56 -40 -38 -19 16 -19 30 1 59 18 26 32 18 39
-21z m-3655 22 c0 -5 -4 -10 -10 -10 -5 0 -10 5 -10 10 0 6 5 10 10 10 6 0 10
-4 10 -10z m2151 -20 c-3 -8 -5 -27 -4 -42 0 -15 -7 -30 -15 -33 -20 -8 -41
24 -42 63 0 32 2 33 33 30 23 -2 31 -7 28 -18z m-1886 -10 c0 -8 -8 -16 -17
-18 -13 -2 -18 3 -18 18 0 15 5 20 18 18 9 -2 17 -10 17 -18z m479 9 c-2 -4
14 -9 36 -13 43 -7 64 -26 29 -26 -12 0 -31 -7 -41 -17 -10 -9 -33 -16 -50
-16 -18 1 -27 -1 -20 -4 22 -8 13 -33 -12 -33 -48 0 -116 13 -116 22 0 5 13 7
29 3 24 -5 30 -2 36 15 5 15 1 26 -12 35 -15 11 -16 14 -3 18 64 21 78 25 102
23 14 0 24 -4 22 -7z m606 -34 c0 -9 -6 -12 -15 -9 -8 4 -12 10 -9 15 8 14 24
10 24 -6z m940 -9 c0 -20 -27 -40 -33 -24 -2 7 -2 19 1 26 6 16 32 15 32 -2z
m-884 -39 c4 -4 15 -7 25 -7 10 0 24 -6 31 -14 16 -16 73 -31 105 -27 13 1 33
-5 45 -13 12 -9 32 -16 43 -16 17 0 65 -32 65 -44 0 -4 -150 0 -225 7 l-70 7
125 -38 c69 -20 134 -42 145 -48 11 -6 32 -14 48 -18 43 -10 35 -37 -10 -35
-53 3 -110 -11 -92 -22 10 -6 6 -11 -18 -20 -18 -6 -33 -14 -33 -19 0 -12 108
-56 185 -75 39 -10 84 -23 100 -30 116 -50 147 -66 161 -80 14 -13 14 -15 -3
-15 -10 0 -27 7 -37 15 -11 8 -32 15 -47 15 -15 0 -31 4 -34 10 -6 10 -53 24
-120 36 l-40 7 19 -22 c11 -11 23 -21 28 -21 6 0 17 -9 27 -21 9 -11 30 -22
46 -24 111 -13 165 -36 258 -112 16 -13 35 -23 44 -23 17 0 99 -64 128 -100
11 -14 32 -37 47 -52 16 -14 28 -31 28 -37 0 -7 15 -18 33 -26 17 -8 26 -14
19 -15 -8 0 -10 -8 -6 -24 5 -21 3 -23 -28 -21 -35 3 -147 59 -215 107 -23 17
-46 27 -52 24 -9 -6 3 -20 62 -74 4 -4 25 -24 45 -45 20 -21 49 -50 65 -65 15
-15 27 -35 27 -45 0 -10 5 -15 10 -12 6 3 10 -1 10 -9 0 -8 9 -21 21 -30 26
-17 53 -55 46 -63 -3 -3 -16 4 -28 16 -29 27 -49 27 -49 0 0 -21 40 -133 65
-181 13 -27 10 -138 -4 -138 -4 0 -12 30 -19 68 -7 37 -19 72 -27 77 -7 6 -17
28 -20 48 -4 21 -14 44 -21 52 -8 7 -14 18 -14 23 0 5 -7 23 -15 38 -8 16 -15
26 -15 21 0 -11 -51 23 -88 60 -18 18 -41 33 -51 33 -10 0 -26 9 -36 20 -15
17 -69 50 -81 50 -8 0 18 -54 40 -83 27 -36 39 -84 22 -90 -6 -2 -11 -10 -11
-18 0 -23 -19 -23 -31 0 -6 12 -21 31 -33 42 -24 23 -28 9 -10 -38 6 -15 15
-68 19 -117 5 -48 13 -93 18 -98 7 -7 7 -19 1 -36 -6 -15 -7 -37 -4 -50 3 -14
0 -29 -10 -38 -8 -9 -18 -27 -21 -42 -10 -42 -80 -163 -119 -206 -19 -21 -35
-34 -35 -28 0 5 7 15 15 22 58 48 137 238 129 312 -4 42 -47 148 -61 148 -4 0
-17 -12 -28 -27 -25 -30 -40 -26 -48 15 -4 18 -14 31 -26 35 -17 4 -21 13 -21
43 0 25 -3 35 -10 28 -6 -6 -6 -21 -1 -42 11 -36 -1 -51 -26 -31 -14 12 -15 4
-9 -76 5 -75 4 -87 -6 -71 -7 10 -21 28 -30 40 -16 20 -16 19 -6 -24 6 -25 15
-49 19 -55 12 -12 11 -35 -1 -35 -5 0 -10 6 -10 14 0 12 -69 76 -83 76 -2 0 0
-23 6 -50 10 -52 3 -76 -13 -50 -6 8 -10 13 -10 10 -1 -3 -4 -25 -6 -50 -3
-25 -10 -50 -16 -57 -5 -7 -7 -16 -4 -21 3 -5 -6 -7 -19 -4 -30 5 -31 -1 -4
-44 11 -19 18 -34 15 -34 -4 0 1 -16 9 -36 8 -20 15 -45 15 -55 0 -11 5 -19
10 -19 6 0 10 -6 10 -13 0 -25 43 -55 65 -47 28 12 37 12 30 -1 -4 -5 -18 -14
-32 -20 -17 -6 -24 -16 -23 -32 3 -34 1 -39 -12 -31 -25 15 -64 13 -148 -11
-117 -32 -220 -41 -255 -22 -26 13 -20 15 101 19 178 8 264 41 243 95 -5 14
-7 28 -4 33 7 11 -16 60 -27 60 -15 0 -38 27 -38 44 0 8 -6 21 -14 28 -7 8
-17 24 -20 36 -4 12 -13 22 -19 22 -11 1 -30 20 -61 65 -14 19 -15 19 -27 -8
-7 -15 -15 -27 -19 -27 -4 0 -5 -11 -3 -24 3 -13 0 -27 -6 -31 -8 -5 -10 1 -5
19 5 22 3 26 -15 26 -12 0 -21 -4 -21 -10 0 -17 -35 -11 -46 8 -11 17 -11 76
1 217 l5 70 -20 -24 c-12 -13 -19 -29 -17 -36 3 -6 -1 -19 -9 -29 -11 -16 -16
-17 -29 -6 -8 7 -16 9 -17 4 -9 -52 -21 -88 -45 -133 -12 -24 -23 -42 -24 -40
0 2 -2 13 -5 24 -8 39 -12 120 -6 129 3 6 6 43 7 84 2 44 -1 69 -6 61 -5 -8
-9 -22 -9 -31 0 -10 -7 -36 -16 -58 -14 -34 -19 -39 -31 -28 -12 10 -17 8 -26
-7 -10 -19 -11 -19 -17 4 -6 28 -28 40 -34 19 -17 -58 -42 -113 -61 -137 -13
-15 -27 -41 -31 -57 -4 -16 -14 -39 -22 -52 l-15 -23 -24 40 c-17 29 -24 56
-25 98 0 32 -5 64 -11 71 -6 8 -6 12 1 12 11 0 9 75 -3 103 -4 10 -5 46 -2 80
4 34 3 55 -1 45 -4 -9 -20 -30 -35 -48 -15 -17 -32 -41 -37 -53 -8 -20 -9 -20
-10 8 l-1 30 -14 -25 c-8 -14 -14 -21 -15 -16 0 6 -6 1 -14 -9 -8 -11 -12 -23
-10 -27 3 -5 1 -8 -3 -8 -13 0 -33 38 -29 52 3 7 7 33 11 57 6 43 5 44 -13 28
-10 -9 -22 -14 -25 -10 -4 3 -7 -2 -7 -12 0 -10 -8 -27 -17 -38 -10 -10 -26
-40 -35 -65 l-17 -47 5 58 c4 46 2 57 -11 57 -8 0 -15 -8 -16 -17 -1 -10 -3
-31 -5 -48 -1 -16 -5 -55 -7 -86 -2 -30 -7 -60 -10 -66 -4 -6 -4 -18 -1 -27 4
-10 -2 -17 -20 -22 -17 -4 -26 -13 -26 -25 0 -10 -7 -19 -15 -19 -8 0 -15 4
-15 9 0 5 -8 12 -17 16 -41 14 -93 120 -93 190 0 17 -4 35 -10 41 -6 6 -6 15
0 24 8 13 10 12 10 -2 0 -10 5 -18 11 -18 7 0 9 8 4 23 -4 12 -10 48 -12 80
-7 80 -29 74 -57 -16 -12 -37 -26 -71 -32 -75 -6 -4 -18 -36 -28 -72 -9 -36
-19 -71 -22 -79 -7 -23 -54 57 -70 122 -11 40 -14 78 -9 113 l6 53 -33 3 c-32
3 -33 4 -33 51 0 26 -3 47 -7 47 -16 0 -7 48 12 73 11 14 20 32 20 41 0 9 4
16 9 16 5 0 12 12 16 27 3 15 10 30 14 33 13 9 84 143 92 174 4 17 11 41 14
54 6 16 3 22 -9 22 -18 0 -23 45 -6 55 6 4 10 12 9 18 -3 29 2 47 14 47 7 0
21 15 31 33 22 39 70 84 99 93 12 4 36 17 53 30 17 13 42 24 55 24 13 0 38 9
54 20 17 11 37 17 46 15 9 -3 37 4 63 16 26 11 50 18 53 15 3 -3 -6 -19 -21
-36 -14 -17 -26 -35 -26 -38 0 -4 -18 -27 -40 -52 -22 -25 -40 -52 -40 -61 0
-9 -13 -29 -30 -45 -43 -42 -37 -51 12 -15 51 37 78 40 78 9 -1 -30 -36 -108
-50 -108 -5 0 -10 -11 -10 -25 0 -14 4 -25 8 -25 5 0 15 11 22 25 7 14 17 25
21 25 13 0 21 -38 13 -62 -6 -20 -5 -21 10 -6 9 9 16 24 16 34 0 13 3 14 15 4
12 -10 15 -10 16 1 0 8 5 4 11 -9 15 -30 27 -24 54 24 23 41 54 58 54 29 0 -9
5 -13 10 -10 6 3 14 -4 19 -17 6 -13 10 -18 10 -11 1 16 45 63 60 63 6 0 11
-9 11 -20 0 -23 22 -26 43 -5 8 8 17 12 20 9 2 -3 14 6 25 20 25 33 29 33 37
-4 7 -33 39 -73 68 -83 13 -5 17 -1 18 16 1 17 2 18 6 5 6 -26 18 -22 32 9 12
27 13 27 27 8 7 -11 17 -24 21 -30 15 -17 33 -92 27 -108 -3 -8 -1 -18 5 -22
7 -4 14 6 17 24 4 17 13 36 20 42 11 9 15 5 21 -22 8 -34 8 -33 14 16 l5 50
17 -38 c10 -21 22 -35 27 -32 12 8 5 151 -9 188 -9 23 -8 31 4 44 9 9 13 23
10 34 -8 24 26 27 45 4 13 -16 31 -20 29 -7 -4 25 5 23 31 -8 24 -29 31 -32
39 -20 9 12 13 11 34 -8 27 -25 37 -28 37 -9 0 16 -107 120 -134 130 -10 4
-20 16 -23 27 -3 11 -17 26 -32 33 -82 42 -121 73 -121 98 0 16 2 16 30 2 19
-9 41 -12 61 -8 28 6 30 9 24 38 -15 75 -15 75 -111 78 -71 2 -104 13 -104 33
0 8 16 20 36 26 23 8 34 17 30 25 -3 9 0 12 10 8 8 -3 14 1 14 11 0 12 10 16
38 17 20 0 55 3 77 7 47 9 72 9 81 -1z m1512 -27 c36 -48 28 -64 -15 -31 -15
13 -35 19 -54 16 -16 -2 -29 0 -29 3 0 12 15 29 30 35 31 11 47 6 68 -23z
m-1228 12 c0 -13 -12 -22 -22 -16 -10 6 -1 24 13 24 5 0 9 -4 9 -8z m-540 -22
c0 -5 -3 -10 -7 -10 -5 0 -25 -4 -45 -9 -42 -10 -51 0 -15 17 28 14 67 15 67
2z m2338 -28 c3 -20 0 -23 -20 -20 -15 2 -24 11 -26 26 -3 20 0 23 20 20 15
-2 24 -11 26 -26z m-2888 -3 c0 -6 -4 -8 -9 -4 -5 3 -12 1 -16 -5 -9 -14 -48
-13 -43 2 5 13 48 28 61 21 4 -2 7 -9 7 -14z m440 11 c0 -5 -7 -10 -15 -10 -8
0 -15 5 -15 10 0 6 7 10 15 10 8 0 15 -4 15 -10z m2627 -13 c18 -2 21 -6 17
-22 -8 -25 -5 -22 -29 -26 -33 -6 -85 21 -85 43 0 18 5 19 38 14 20 -4 47 -8
59 -9z m-3687 -32 c0 -9 -10 -15 -23 -15 -31 0 -38 9 -26 31 8 15 14 17 29 9
11 -6 20 -17 20 -25z m2161 13 c39 -33 41 -108 3 -108 -14 0 -16 7 -11 40 4
30 2 40 -9 40 -8 0 -14 -7 -14 -16 0 -8 -4 -13 -10 -9 -5 3 -7 12 -5 20 3 8 7
22 10 30 5 18 16 19 36 3z m-1441 -28 c0 -5 -15 -17 -32 -26 -18 -9 -37 -23
-41 -30 -8 -14 -109 -66 -115 -59 -9 9 80 83 94 78 5 -2 25 8 44 21 38 27 50
31 50 16z m-1240 -25 c0 -16 -45 -21 -54 -6 -8 12 4 21 31 21 14 0 23 -6 23
-15z m2980 11 c0 -3 -4 -8 -10 -11 -5 -3 -10 -1 -10 4 0 6 5 11 10 11 6 0 10
-2 10 -4z m-390 -20 c-6 -8 -18 -12 -26 -9 -23 9 -16 23 12 23 22 0 24 -2 14
-14z m-2780 -6 c0 -11 -40 -34 -47 -26 -3 3 -3 12 0 21 7 16 47 21 47 5z
m3110 0 c-13 -9 -12 -12 4 -25 10 -8 24 -16 30 -19 19 -8 -27 -37 -54 -34 -14
2 -30 13 -36 27 -17 34 1 61 41 61 23 0 27 -3 15 -10z m-2850 -54 c-15 -15
-34 9 -26 31 7 17 8 17 22 -1 9 -13 11 -23 4 -30z m954 13 c-8 -14 -34 -10
-34 5 0 9 7 12 20 9 11 -3 17 -9 14 -14z m466 -40 c0 -11 -4 -17 -10 -14 -5 3
-10 13 -10 21 0 8 5 14 10 14 6 0 10 -9 10 -21z m-1630 -9 c0 -5 -4 -10 -10
-10 -5 0 -10 5 -10 10 0 6 5 10 10 10 6 0 10 -4 10 -10z m291 -45 c27 -49 36
-85 22 -85 -24 0 -73 43 -78 67 -4 15 -11 38 -16 51 -8 21 -7 23 18 20 20 -2
33 -15 54 -53z m2124 5 c3 -5 -1 -10 -9 -10 -9 0 -16 5 -16 10 0 6 4 10 9 10
6 0 13 -4 16 -10z m1351 -7 c3 -10 12 -30 20 -46 17 -31 12 -47 -17 -47 -14 0
-19 7 -19 25 0 15 -8 29 -22 36 -33 17 -33 18 -12 34 26 19 43 19 50 -2z
m-3756 -13 c0 -5 -4 -10 -10 -10 -5 0 -10 5 -10 10 0 6 5 10 10 10 6 0 10 -4
10 -10z m3551 -11 c-10 -11 -21 -35 -24 -52 -16 -100 -46 -118 -67 -40 -13 44
-12 47 9 65 13 10 29 18 36 18 7 0 15 7 19 15 3 8 15 15 26 15 21 0 21 0 1
-21z m-431 1 c0 -5 9 -10 21 -10 12 0 23 -8 26 -20 3 -11 9 -17 14 -14 5 3 9
-5 9 -17 0 -17 5 -20 23 -17 18 4 23 0 25 -18 2 -32 -17 -41 -37 -17 -9 10
-28 24 -42 30 -35 15 -76 93 -49 93 6 0 10 -4 10 -10z m1224 -19 c3 -4 -6 -19
-19 -31 -21 -20 -28 -21 -38 -11 -9 10 -9 15 0 18 7 2 9 11 6 19 -4 10 2 14
20 14 14 0 28 -4 31 -9z m-304 -5 c0 -11 -19 -15 -25 -6 -3 5 1 10 9 10 9 0
16 -2 16 -4z m-1090 -30 c0 -2 3 -11 6 -20 5 -12 0 -16 -20 -16 -24 0 -35 18
-19 33 7 8 33 10 33 3z m-906 -37 c-6 -11 -24 -2 -24 11 0 5 7 7 15 4 8 -4 12
-10 9 -15z m-1917 -8 c11 -17 9 -21 -8 -26 -15 -5 -19 -13 -15 -28 3 -15 -5
-29 -32 -54 -42 -39 -57 -38 -57 3 0 23 7 32 37 46 26 13 38 26 43 48 8 35 15
38 32 11z m3633 4 c-7 -8 -18 -15 -25 -15 -7 0 -26 -15 -43 -34 -29 -34 -43
-35 -54 -5 -12 31 40 68 96 68 33 1 37 -1 26 -14z m-2400 -15 c0 -11 -4 -20
-10 -20 -5 0 -10 9 -10 20 0 11 5 20 10 20 6 0 10 -9 10 -20z m-1000 -24 c0
-33 -9 -37 -87 -41 -47 -2 -74 1 -90 12 -47 31 -12 50 61 33 37 -8 52 -7 74 4
37 21 42 20 42 -8z m2638 16 c9 -7 8 -13 -8 -27 -20 -18 -20 -18 -20 8 0 28 6
32 28 19z m1148 -48 c9 -47 -3 -56 -48 -37 -58 23 -45 72 19 73 18 0 23 -7 29
-36z m-992 7 c10 -11 25 -17 37 -14 27 8 49 -15 47 -48 -2 -23 -5 -26 -20 -18
-9 5 -22 17 -27 27 -6 9 -11 11 -11 5 0 -7 -9 -13 -20 -13 -11 0 -20 -6 -21
-12 0 -7 -5 -3 -11 10 -7 13 -24 26 -40 29 -35 7 -36 18 0 37 36 20 46 20 66
-3z m824 7 c7 -7 12 -22 12 -34 0 -21 -3 -22 -29 -13 -16 6 -37 20 -48 31 -18
20 -18 21 4 14 12 -4 24 -2 28 4 8 13 18 13 33 -2z m340 -16 c4 -27 -25 -82
-43 -82 -8 0 -15 7 -15 16 0 8 -4 12 -10 9 -5 -3 -10 1 -10 9 0 9 4 16 9 16 6
0 18 14 28 30 19 34 36 34 41 2z m-578 -58 c0 -18 -24 -44 -40 -44 -23 0 -24
4 -10 31 10 17 50 28 50 13z m-330 -50 c0 -8 -5 -12 -10 -9 -6 4 -8 11 -5 16
9 14 15 11 15 -7z m-3068 -16 c-7 -7 -12 -27 -12 -45 0 -33 -1 -33 -19 -16
-28 26 -27 36 5 55 35 20 42 22 26 6z m3495 -104 c9 -9 10 -15 2 -19 -6 -4 -8
-14 -5 -22 10 -26 -4 -33 -25 -12 -15 15 -30 20 -50 17 -24 -4 -29 -1 -29 17
0 12 2 24 5 27 11 11 90 5 102 -8z m-434 -58 c3 -7 1 -31 -5 -52 -5 -22 -9
-52 -9 -67 2 -47 -23 -26 -34 28 -7 36 -6 50 3 53 7 2 9 8 6 13 -6 10 13 39
26 39 4 0 10 -6 13 -14z m-2872 -56 c5 0 9 -7 9 -15 0 -10 -10 -15 -30 -15
-18 0 -30 5 -30 13 0 19 12 29 28 22 7 -3 18 -5 23 -5z m3495 -47 c-10 -10
-19 5 -10 18 6 11 8 11 12 0 2 -7 1 -15 -2 -18z m-153 -7 c6 -15 -1 -26 -15
-26 -4 0 -8 9 -8 20 0 23 15 27 23 6z m-3443 -45 c0 -13 -25 -31 -49 -36 -12
-2 -24 -6 -29 -8 -4 -3 -13 1 -20 9 -11 12 -8 14 18 14 16 0 30 4 30 9 0 8 16
16 43 20 4 0 7 -3 7 -8z m-170 -26 c29 -15 80 -73 80 -92 0 -5 9 -18 20 -28
11 -10 20 -27 20 -37 0 -15 -6 -19 -27 -16 -23 2 -28 8 -28 31 1 15 -4 27 -10
28 -28 3 -62 -4 -76 -17 -20 -18 -115 -16 -130 3 -9 10 -9 20 -1 38 13 28 32
33 32 10 0 -18 -1 -18 44 0 34 14 37 19 31 45 -6 27 -1 50 11 50 3 0 18 -7 34
-15z m-110 -10 c0 -19 -19 -29 -55 -31 -16 -1 -31 -7 -33 -13 -2 -6 -10 -11
-18 -11 -8 0 -14 -4 -14 -9 0 -18 -30 -19 -51 -2 l-22 18 43 29 c33 23 54 30
96 31 40 1 54 -2 54 -12z m4100 5 c0 -5 -7 -10 -15 -10 -8 0 -15 5 -15 10 0 6
7 10 15 10 8 0 15 -4 15 -10z m-4325 -30 c3 -5 -1 -10 -9 -10 -9 0 -16 5 -16
10 0 6 4 10 9 10 6 0 13 -4 16 -10z m86 -110 c5 0 9 -14 9 -31 0 -30 1 -31 39
-24 24 4 42 2 45 -4 10 -15 -11 -51 -48 -86 -28 -26 -35 -29 -55 -19 -12 7
-18 13 -13 15 21 9 22 46 1 72 -23 30 -45 34 -68 13 -22 -20 -45 -5 -36 23 6
18 11 20 47 14 30 -4 39 -3 34 5 -10 17 3 34 21 28 8 -3 19 -6 24 -6z m3669
-45 c0 -2 -22 -15 -50 -28 -47 -23 -50 -23 -50 -5 0 10 10 23 23 28 23 9 77
13 77 5z m-3351 -101 c36 -8 42 -34 7 -34 -13 0 -36 -2 -52 -5 -32 -6 -70 17
-59 34 7 12 56 14 104 5z m938 -39 c0 -8 -4 -15 -9 -15 -10 0 -11 14 -1 23 9
10 10 9 10 -8z m2651 -53 c3 -17 -2 -22 -17 -22 -16 0 -21 6 -21 26 0 33 33
30 38 -4z m-3958 3 c0 -9 -9 -15 -25 -15 -24 0 -32 10 -18 23 12 13 43 7 43
-8z m4393 -3 c15 -10 24 -21 21 -25 -4 -4 -2 -13 4 -20 18 -21 4 -27 -25 -12
-30 16 -58 6 -67 -22 -3 -10 -5 -45 -5 -78 0 -34 -4 -61 -10 -63 -6 -2 -18
-10 -26 -19 -8 -8 -27 -13 -42 -11 -28 3 -32 15 -19 48 4 11 -9 22 -45 40 -61
30 -94 59 -81 72 14 14 63 -2 74 -26 5 -11 26 -34 46 -49 l37 -29 3 24 c2 13
10 27 18 31 18 11 18 26 -2 48 -15 17 -15 20 0 44 9 14 25 25 36 25 10 0 22 9
25 20 8 25 22 25 58 2z m-185 -68 c33 -22 28 -37 -10 -28 -30 6 -57 28 -58 47
0 10 38 -1 68 -19z m-3908 1 c6 -8 10 -21 8 -30 -3 -15 -6 -14 -31 5 -27 21
-28 40 -3 40 8 0 19 -7 26 -15z m-190 -79 c-7 -7 -14 -6 -22 2 -10 10 -10 15
2 22 17 11 34 -10 20 -24z m340 3 c0 -24 -23 -21 -28 4 -2 10 3 17 12 17 10 0
16 -9 16 -21z m3624 -40 c-11 -18 -32 -9 -27 11 4 16 8 18 19 9 8 -6 11 -15 8
-20z m-3924 -143 c0 -16 -18 -31 -27 -22 -8 8 5 36 17 36 5 0 10 -6 10 -14z
m-82 -38 c4 -31 -24 -59 -34 -34 -9 23 5 68 19 63 7 -2 13 -15 15 -29z m3707
13 c10 -18 -17 -23 -33 -7 -15 15 -15 16 5 16 12 0 24 -4 28 -9z m545 -1 c0
-5 -2 -10 -4 -10 -3 0 -8 5 -11 10 -3 6 -1 10 4 10 6 0 11 -4 11 -10z m-115
-10 c-3 -5 -14 -10 -23 -10 -15 0 -15 2 -2 10 20 13 33 13 25 0z m-334 -36
c10 -13 10 -17 -2 -25 -23 -14 -39 -10 -39 9 0 34 20 42 41 16z m267 4 c-6
-18 -28 -21 -28 -4 0 9 7 16 16 16 9 0 14 -5 12 -12z m-458 -23 c0 -8 -4 -16
-9 -19 -5 -3 -8 5 -8 19 0 14 3 22 8 19 5 -3 9 -11 9 -19z m50 -42 c0 -5 -7
-17 -15 -27 -15 -20 -15 -20 -15 0 0 12 3 24 7 27 9 9 23 9 23 0z m360 -27
c18 -23 8 -61 -17 -64 -12 -2 -36 -21 -54 -43 -30 -39 -59 -51 -59 -26 0 21
39 97 50 97 6 0 10 11 10 25 0 21 5 25 29 25 16 0 34 -7 41 -14z m-3968 -14
c-7 -2 -12 -22 -12 -44 l0 -41 49 6 c44 5 51 3 65 -18 18 -27 20 -53 7 -74 -6
-10 -13 -2 -27 28 l-18 40 -18 -29 c-21 -36 -57 -40 -76 -9 -8 12 -19 18 -28
15 -9 -3 -17 1 -20 12 -3 9 -10 25 -15 34 -13 25 -11 38 5 32 8 -3 25 9 42 29
18 23 33 33 43 29 10 -4 11 -7 3 -10z m348 8 c0 -5 -12 -10 -27 -10 -22 0 -25
2 -13 10 20 13 40 13 40 0z m3445 -39 c7 -12 -12 -24 -25 -16 -11 7 -4 25 10
25 5 0 11 -4 15 -9z m83 -211 c-2 -14 -10 -26 -20 -28 -15 -3 -18 4 -18 36 0
21 3 42 7 46 12 12 34 -27 31 -54z m-3833 30 c5 -8 11 -7 21 1 19 15 44 4 44
-19 0 -31 -25 -46 -43 -27 -9 8 -23 15 -31 15 -9 0 -16 8 -16 20 0 21 15 27
25 10z m4119 -84 c23 -19 27 -29 22 -50 -8 -31 -36 -35 -36 -6 0 11 -11 30
-25 42 -24 21 -25 38 -2 38 7 -1 25 -11 41 -24z m-3958 -24 c-7 -11 -46 -4
-46 8 0 12 33 18 44 9 4 -4 5 -12 2 -17z m3683 -23 c-7 -14 -14 -18 -21 -11
-13 13 -2 32 18 32 12 0 13 -4 3 -21z m411 6 c0 -8 -7 -15 -15 -15 -8 0 -15 7
-15 15 0 8 7 15 15 15 8 0 15 -7 15 -15z m-3936 -41 c9 -22 8 -24 -9 -24 -8 0
-15 9 -15 20 0 24 15 27 24 4z m-494 -99 c0 -8 -6 -15 -14 -15 -8 0 -28 -11
-44 -25 -17 -14 -37 -25 -46 -25 -27 0 -18 30 12 40 15 5 38 16 52 24 33 19
40 19 40 1z m584 -10 c8 -9 23 -29 33 -45 9 -17 23 -30 30 -30 19 0 32 -32 23
-56 -13 -32 -31 -40 -46 -19 -22 30 -67 55 -98 55 -35 0 -96 21 -96 32 0 13
-17 9 -34 -8 -14 -14 -18 -14 -31 0 -21 21 -19 26 13 26 16 0 32 3 36 8 8 7
12 8 39 11 8 0 24 10 37 21 27 24 73 26 94 5z m3641 -64 c3 -6 -4 -15 -15 -21
-11 -6 -20 -9 -20 -6 0 2 -3 11 -6 20 -4 11 0 16 14 16 12 0 23 -4 27 -9z
m-3835 -62 c0 -10 -7 -19 -15 -19 -15 0 -21 31 -9 43 11 10 24 -3 24 -24z
m2987 1 c3 -11 10 -20 17 -20 7 0 7 -3 1 -8 -5 -4 -10 -18 -10 -31 0 -13 -6
-26 -12 -28 -8 -3 -13 4 -13 16 0 25 -17 28 -22 4 -3 -17 -4 -17 -10 -1 -4 10
-1 24 7 32 17 17 20 36 5 36 -5 0 -10 5 -10 10 0 19 42 10 47 -10z m-2351 -34
c11 -1 25 -6 32 -10 7 -4 12 -2 12 4 0 22 45 6 48 -18 3 -21 1 -22 -36 -16
-23 4 -42 2 -46 -4 -4 -6 -28 -8 -61 -5 -36 4 -55 2 -55 -5 0 -6 6 -13 13 -16
6 -2 -15 -4 -48 -3 -58 2 -59 1 -61 -25 -5 -50 -20 -65 -71 -71 -40 -4 -52 -2
-71 16 -19 18 -21 23 -9 32 8 6 17 19 19 30 3 14 11 19 27 17 13 -1 32 5 42
14 10 9 23 13 29 9 6 -3 25 -3 42 0 26 6 29 9 17 19 -8 6 -18 20 -22 30 -7 18
-3 18 85 12 51 -4 102 -8 114 -10z m-296 0 c0 -3 -4 -8 -10 -11 -5 -3 -10 -1
-10 4 0 6 5 11 10 11 6 0 10 -2 10 -4z m-253 -36 c40 -21 73 -26 73 -10 0 5
-8 14 -17 19 -24 14 -6 14 34 -1 32 -12 48 -48 20 -48 -7 0 -18 -9 -25 -20
-14 -22 -71 -27 -116 -10 -21 8 -26 16 -26 43 0 30 6 47 17 47 2 0 20 -9 40
-20z m3633 10 c0 -13 -28 -25 -38 -16 -3 4 0 11 8 16 20 13 30 12 30 0z m5
-60 c-3 -5 -2 -10 4 -10 6 0 15 -19 22 -42 6 -24 18 -56 26 -71 17 -33 15 -38
-13 -31 -36 9 -77 164 -43 164 5 0 7 -4 4 -10z m137 -77 c10 -9 18 -26 18 -39
0 -31 -36 -21 -55 16 -21 41 2 55 37 23z m-3706 -23 c24 -17 44 -35 44 -40 0
-15 -26 -12 -40 5 -17 20 -57 19 -68 -1 -7 -12 -17 -15 -36 -10 -35 9 -33 23
5 31 19 4 33 15 36 26 7 24 6 24 59 -11z m-432 -16 c6 -16 -20 -64 -35 -64
-16 0 -20 25 -10 53 12 30 36 36 45 11z m4286 -79 c0 -9 -7 -18 -15 -21 -8 -4
-12 -10 -9 -15 3 -5 -1 -9 -9 -9 -16 0 -29 -34 -21 -54 2 -6 22 -23 44 -36 22
-14 40 -28 40 -31 0 -14 -56 -17 -80 -4 -14 7 -32 16 -41 18 -33 10 -16 99 29
150 19 21 62 23 62 2z m-3493 -80 c-2 -5 -12 -10 -22 -10 -10 0 -20 5 -22 10
-1 6 8 10 22 10 14 0 24 -4 22 -10z m303 -25 c0 -5 -7 -10 -15 -10 -8 0 -15 5
-15 10 0 6 7 10 15 10 8 0 15 -4 15 -10z m-1170 -25 c0 -8 -2 -15 -4 -15 -2 0
-6 7 -10 15 -3 8 -1 15 4 15 6 0 10 -7 10 -15z m135 -34 c7 -12 -12 -24 -25
-16 -11 7 -4 25 10 25 5 0 11 -4 15 -9z m865 -1 c0 -5 -7 -10 -16 -10 -8 0
-12 5 -9 10 3 6 10 10 16 10 5 0 9 -4 9 -10z m3171 0 c5 0 9 -4 9 -10 0 -5 -5
-10 -12 -10 -6 0 -19 -7 -29 -16 -21 -19 -30 -7 -18 25 6 15 14 21 25 17 9 -3
20 -6 25 -6z m-3534 -56 c8 -21 -14 -34 -59 -34 -31 0 -38 4 -38 19 0 31 86
44 97 15z m123 -14 c11 -11 20 -27 20 -35 0 -8 11 -31 25 -51 14 -20 25 -45
25 -55 0 -10 14 -34 30 -52 30 -35 41 -89 20 -102 -6 -4 -10 -16 -8 -28 2 -14
-3 -23 -14 -25 -15 -3 -18 5 -18 52 0 31 -4 56 -9 56 -5 0 -14 14 -20 30 -6
17 -16 43 -22 59 -9 26 -55 54 -122 75 -22 7 -13 26 13 26 29 0 35 20 11 36
-31 22 -26 34 14 34 22 0 43 -8 55 -20z m70 -35 c0 -8 -6 -15 -14 -15 -17 0
-28 14 -19 24 12 12 33 6 33 -9z m3540 4 c0 -7 -7 -17 -16 -24 -16 -11 -16
-14 1 -43 21 -36 14 -52 -15 -34 -11 7 -28 12 -39 12 -20 0 -51 25 -51 41 0 5
7 9 15 9 9 0 18 7 21 15 4 10 13 13 24 10 10 -3 24 1 32 9 16 18 28 20 28 5z
m-4382 -22 c3 -12 -3 -17 -21 -17 -31 0 -40 10 -25 27 15 18 42 12 46 -10z
m2344 16 c4 -11 130 -73 146 -73 21 0 112 -42 112 -51 0 -17 -50 -29 -115 -29
-35 0 -66 -4 -70 -10 -3 -5 -13 -6 -22 -3 -11 4 -14 3 -9 -5 4 -7 4 -22 0 -34
-6 -19 -7 -20 -16 -4 -5 10 -17 15 -26 12 -9 -3 -22 -2 -28 2 -23 14 -74 123
-74 157 0 31 3 34 33 38 59 7 65 7 69 0z m1898 -33 c0 -5 -2 -10 -4 -10 -3 0
-8 5 -11 10 -3 6 -1 10 4 10 6 0 11 -4 11 -10z m-160 -90 c0 -5 -9 -10 -20
-10 -11 0 -20 5 -20 10 0 6 9 10 20 10 11 0 20 -4 20 -10z m170 -9 c0 -14 -18
-23 -30 -16 -6 4 -8 11 -5 16 8 12 35 12 35 0z m-4347 -18 c3 -5 1 -19 -4 -32
-12 -31 -34 -13 -24 18 6 21 20 28 28 14z m2554 -19 c-3 -3 -12 -4 -19 -1 -8
3 -5 6 6 6 11 1 17 -2 13 -5z m-2393 -67 c6 -34 -9 -44 -24 -17 -9 16 -8 25 1
36 14 18 16 16 23 -19z m3993 -39 c-3 -7 -5 -2 -5 12 0 14 2 19 5 13 2 -7 2
-19 0 -25z m-3287 -8 c0 -5 -2 -10 -4 -10 -3 0 -8 5 -11 10 -3 6 -1 10 4 10 6
0 11 -4 11 -10z m-480 -144 c0 -19 -8 -27 -35 -36 -41 -13 -65 -8 -65 15 0 18
13 19 41 5 14 -8 19 -7 19 3 0 14 19 37 32 37 4 0 8 -11 8 -24z m4000 -1 c0
-12 -24 -55 -32 -55 -4 0 -8 14 -8 30 0 23 4 30 20 30 11 0 20 -2 20 -5z
m-4232 -24 c3 -8 -1 -12 -9 -9 -7 2 -15 10 -17 17 -3 8 1 12 9 9 7 -2 15 -10
17 -17z m-70 -98 c2 -8 -6 -13 -22 -13 -17 0 -26 5 -26 16 0 19 41 16 48 -3z
m212 2 c7 -9 19 -14 26 -11 7 3 16 1 19 -4 9 -14 -49 -12 -63 2 -7 7 -12 16
-12 20 0 13 17 9 30 -7z m126 -116 c1 -23 -1 -25 -12 -14 -17 17 -18 42 -1 42
6 0 12 -13 13 -28z m4050 -144 c4 -8 0 -22 -7 -31 -11 -14 -15 -13 -31 8 -9
13 -18 26 -18 31 0 14 51 7 56 -8z m-4036 -9 c0 -8 -4 -18 -10 -21 -15 -9 -12
-45 4 -45 13 0 26 -28 26 -57 0 -7 -8 -13 -18 -13 -10 0 -28 -7 -40 -16 -20
-14 -22 -14 -22 0 0 10 -9 16 -25 16 -35 0 -32 27 7 81 45 63 78 86 78 55z
m-240 -52 c0 -41 -12 -44 -29 -8 -9 20 -9 30 0 40 17 20 29 7 29 -32z"/>
<path d="M2920 3362 c0 -12 38 -41 44 -34 3 3 -1 14 -11 24 -17 19 -33 24 -33
10z"/>
<path d="M2761 2934 c0 -11 3 -14 6 -6 3 7 2 16 -1 19 -3 4 -6 -2 -5 -13z"/>
<path d="M2821 2824 c0 -11 3 -14 6 -6 3 7 2 16 -1 19 -3 4 -6 -2 -5 -13z"/>
<path d="M2460 2266 c0 -2 7 -6 15 -10 8 -3 15 -1 15 4 0 6 -7 10 -15 10 -8 0
-15 -2 -15 -4z"/>
<path d="M4303 4588 c2 -7 12 -13 22 -13 10 0 20 6 23 13 2 7 -6 12 -23 12
-17 0 -25 -5 -22 -12z"/>
<path d="M1707 869 c7 -7 15 -10 18 -7 3 3 -2 9 -12 12 -14 6 -15 5 -6 -5z"/>
<path d="M1768 833 c7 -3 16 -2 19 1 4 3 -2 6 -13 5 -11 0 -14 -3 -6 -6z"/>
<path d="M1680 193 c-8 -3 -22 -11 -30 -19 -20 -17 -115 -51 -167 -59 -23 -4
-47 -13 -54 -21 -6 -8 -18 -14 -26 -14 -8 0 -39 -13 -68 -29 -29 -16 -55 -27
-58 -25 -2 2 -10 -2 -17 -11 -11 -13 17 -15 258 -15 l270 0 6 31 c10 51 7 97
-8 134 -14 32 -19 35 -53 34 -21 0 -45 -3 -53 -6z"/>
</g>
</svg>
